<?xml version="1.0" standalone="no"?>
<!DOCTYPE svg PUBLIC "-//W3C//DTD SVG 20010904//EN"
 "http://www.w3.org/TR/2001/REC-SVG-20010904/DTD/svg10.dtd">
<svg version="1.0" xmlns="http://www.w3.org/2000/svg"
 width="860.000000pt" height="860.000000pt" viewBox="0 0 860.000000 860.000000"
 preserveAspectRatio="xMidYMid meet">
<metadata>
Created by potrace 1.14, written by Peter Selinger 2001-2017
</metadata>
<g transform="translate(0.000000,860.000000) scale(0.100000,-0.100000)"
fill="#000000" stroke="none">
<path d="M3780 7970 c-251 -20 -635 -101 -930 -196 -966 -310 -1682 -875
-2026 -1599 -167 -351 -255 -866 -175 -1022 36 -71 77 -94 189 -107 147 -16
6557 -15 6793 2 231 16 246 20 284 97 29 59 30 63 29 210 -2 343 -122 733
-328 1058 -238 377 -637 753 -1070 1006 -517 303 -1235 520 -1821 551 -215 11
-802 11 -945 0z m990 -484 c658 -78 1195 -262 1685 -578 125 -81 257 -189 404
-333 205 -200 286 -304 389 -495 103 -192 180 -396 189 -502 l6 -68 -3162 0
-3162 0 6 38 c69 410 366 874 765 1192 494 394 1171 661 1890 746 284 33 705
33 990 0z"/>
<path d="M2655 6694 c-79 -41 -109 -93 -103 -182 4 -61 6 -66 50 -107 77 -74
168 -80 247 -18 54 44 73 87 68 155 -6 68 -31 108 -91 143 -50 29 -125 33
-171 9z"/>
<path d="M5784 6678 c-27 -18 -57 -49 -66 -68 -22 -43 -23 -121 -4 -159 29
-55 115 -111 171 -111 32 0 90 25 122 53 130 114 50 317 -125 317 -39 0 -60
-7 -98 -32z"/>
<path d="M4254 6530 c-17 -6 -51 -27 -75 -49 l-44 -38 -3 -81 c-4 -80 -4 -80
32 -120 88 -97 204 -97 291 -1 33 37 35 43 35 107 0 49 -5 76 -20 99 -41 67
-141 106 -216 83z"/>
<path d="M1348 4865 c-241 -39 -487 -168 -642 -335 -77 -84 -89 -110 -84 -186
7 -119 93 -209 212 -221 75 -8 124 12 234 94 117 87 159 111 257 145 113 38
239 47 355 24 157 -32 234 -74 405 -220 294 -253 554 -349 900 -333 211 10
357 53 540 158 71 40 114 73 309 233 153 126 312 182 495 174 183 -8 321 -71
500 -226 206 -178 424 -290 640 -327 171 -30 404 -13 571 41 169 55 285 126
521 316 156 127 291 178 469 178 110 0 218 -23 302 -66 29 -14 103 -62 164
-105 129 -91 146 -99 222 -99 162 1 268 152 220 313 -45 149 -441 390 -703
426 -110 16 -338 14 -437 -4 -159 -27 -355 -119 -503 -235 -199 -155 -252
-193 -309 -222 -110 -55 -129 -59 -307 -59 -142 0 -174 3 -228 21 -80 27 -178
86 -286 175 -211 173 -327 243 -481 294 -146 47 -274 65 -438 58 -291 -11
-509 -101 -768 -318 -178 -148 -269 -199 -402 -224 -102 -20 -262 -19 -339 1
-111 29 -172 66 -375 228 -204 163 -327 227 -542 283 -121 31 -340 40 -472 18z"/>
<path d="M558 3620 c-123 -6 -129 -7 -165 -37 -21 -16 -49 -52 -63 -79 l-25
-48 0 -586 c0 -549 1 -587 19 -622 41 -83 139 -138 247 -138 51 0 63 -9 73
-55 4 -16 27 -95 52 -175 121 -386 345 -679 679 -887 123 -77 249 -134 411
-188 l137 -45 2216 1 c1219 0 2293 4 2386 9 193 10 274 29 448 105 474 209
803 598 937 1109 l33 124 101 4 c112 4 128 10 202 76 l49 44 0 606 c0 478 -3
617 -13 652 -10 31 -29 60 -64 93 l-50 47 -3742 -2 c-2057 0 -3798 -4 -3868
-8z m7272 -563 c0 -57 -3 -186 -7 -285 l-6 -182 -3519 0 -3518 0 0 275 c0 151
1 276 3 277 14 10 929 14 3735 16 l3312 2 0 -103z m-682 -954 l294 -6 -7 -36
c-10 -57 -138 -309 -193 -381 -61 -81 -180 -194 -259 -248 -96 -65 -264 -147
-329 -161 -32 -6 -102 -17 -154 -23 -128 -14 -3932 -23 -4261 -9 -234 9 -238
10 -345 46 -266 88 -482 255 -622 478 -61 97 -119 234 -128 301 l-7 46 2859 0
c1573 0 2991 -3 3152 -7z"/>
</g>
</svg>
